<svg xmlns="http://www.w3.org/2000/svg" width="28" height="32"><g fill="none" fillRule="evenodd"><path fill="#00F4CB" d="M22.896 11.188a.629.629 0 0 0-.28-.29L20.442 9.6a.382.382 0 0 0-.096-.04c-.011-.003-.022-.003-.034-.005-.022-.004-.044-.008-.067-.008h-.004v.001a.373.373 0 0 0-.183.052l-4.89 2.92-.005-.009-.395.236a1.493 1.493 0 0 1-1.537 0l-2.137-1.276a.405.405 0 0 1 0-.688l2.137-1.276a1.493 1.493 0 0 1 1.537 0l.515.308c.12.07.266.07.385 0l1.99-1.189a.404.404 0 0 0 0-.688l-2.89-1.725a1.494 1.494 0 0 0-1.537 0l-7.078 4.226a.808.808 0 0 0 0 1.376l7.078 4.226a1.494 1.494 0 0 0 1.537 0l5.473-3.267v7.442l-1.759 1.053-3.714 2.224a1.497 1.497 0 0 1-1.537 0l-5.088-3.038a.8.8 0 0 1-.384-.688v-4.338a.399.399 0 0 0-.192-.344l-1.99-1.189c-.257-.153-.577.039-.577.345v7.173a.8.8 0 0 0 .384.689l7.847 4.684c.235.14.497.21.758.212V27h.006c.037 0 .074-.004.112-.007.03-.002.058-.002.087-.006.04-.005.079-.015.118-.024.026-.005.054-.008.08-.016.042-.011.083-.027.124-.043.023-.008.046-.014.068-.023.063-.027.124-.058.184-.094l6.77-4.041 1.073-.63a.8.8 0 0 0 .389-.69v-9.84a.813.813 0 0 0-.104-.398" /><path fill="#FFFFFF" d="M14.764 3.462a1.554 1.554 0 0 0-.764-.21 1.556 1.556 0 0 0-.764.21l-9.647 5.59a1.567 1.567 0 0 0-.782 1.358v11.18c0 .56.298 1.078.782 1.358l9.647 5.59c.24.139.508.208.776.21.267-.002.535-.071.775-.21l9.604-5.565a1.57 1.57 0 0 0 .782-1.359v-3.23c0-.14.074-.27.196-.34l2.045-1.185c.26-.15.586.038.586.34v6.017c0 .26-.067.511-.185.735-.03.148-.19.323-.418.502l-.017.013c-.578.45-1.533.917-1.703 1.015l-10.89 6.31a1.561 1.561 0 0 1-.802.209h-.013v-.001a1.548 1.548 0 0 1-.736-.209L.782 24.574A1.57 1.57 0 0 1 0 23.216V8.784c0-.252.032-.509.142-.726.015-.056.166-.333.477-.561.117-.08.324-.186.519-.299L13.2.21A1.56 1.56 0 0 1 14 0c.276-.003.553.066.8.21l11.13 6.448c.026.015.046.034.067.052l.141.08c.38.202.972.509 1.293.754l.027.02a.26.26 0 0 0 .012.01c.012.009.02.018.03.028.118.1.219.216.297.346l.005.006c.127.215.198.463.198.721v5.285c0 .14-.074.27-.195.34l-2.046 1.185a.391.391 0 0 1-.586-.34V10.38a1.57 1.57 0 0 0-.784-1.36l-9.625-5.558z" /></g></svg>
